<svg id="Capa_1" data-name="Capa 1" xmlns="http://www.w3.org/2000/svg" viewBox="0 0 250.53 62.28"><defs><style>.cls-1,.cls-2{font-size:34px;}.cls-1{fill:#1f96b0;}.cls-1,.cls-2,.cls-4{font-family:BookmanOldStyle-Italic, Bookman Old Style;font-style:italic;}.cls-2{fill:#4cade0;}.cls-3{fill:#2c2d2d;}.cls-4{font-size:15px;fill:#1d1d1b;}</style></defs><text class="cls-1" transform="translate(67.5 35.99)">Clinic</text><text class="cls-2" transform="translate(160.51 35.99)">Smile</text><path class="cls-3" d="M139.54,309.49a30.24,30.24,0,0,1-22.21-9.93,35.25,35.25,0,0,1-9.42-19.37,37.91,37.91,0,0,1-.48-5.43c0-.8.06-.85.79-.55a81.06,81.06,0,0,0,15.46,4.68,79.92,79.92,0,0,0,20.48,1.33,82.58,82.58,0,0,0,26.36-6.13c.85-.35.94-.3.91.45a39,39,0,0,1-6.86,21.33,30.85,30.85,0,0,1-20.4,13.25A24.66,24.66,0,0,1,139.54,309.49Z" transform="translate(-107.43 -247.21)"/><path class="cls-3" d="M128.82,258.9a16.07,16.07,0,0,0-2.66-2.68A12.38,12.38,0,0,0,110,257.28c-.41.4-.78.83-1.18,1.25-.12.12-.23.3-.43.22s-.18-.27-.18-.45c-.17-5,2.45-9.58,8-10.77,4.32-.94,8,.18,10.86,3.73A10.22,10.22,0,0,1,128.82,258.9Z" transform="translate(-107.43 -247.21)"/><path class="cls-3" d="M150,256.92c-.13-5,3.51-8.82,8.56-9.56a10.31,10.31,0,0,1,10.74,5.15,14.32,14.32,0,0,1,1.52,5.87c0,.24,0,.56-.24.64s-.4-.24-.54-.43a10.57,10.57,0,0,0-7.12-4.64,12.9,12.9,0,0,0-11.38,3.35,13.5,13.5,0,0,0-.95,1.15c-.1.12-.21.31-.42.21s-.17-.24-.17-.39C150,257.82,150,257.37,150,256.92Z" transform="translate(-107.43 -247.21)"/><text class="cls-4" transform="translate(92.43 48.28)">Sonrisas Radiantes</text></svg>